<?xml version="1.0" encoding="utf-8"?>
<!-- Generator: Adobe Illustrator 19.2.1, SVG Export Plug-In . SVG Version: 6.00 Build 0)  -->
<svg version="1.1" id="Layer_1" xmlns="http://www.w3.org/2000/svg" xmlns:xlink="http://www.w3.org/1999/xlink" x="0px" y="0px"
	 viewBox="0 0 1486.3 59.7" style="enable-background:new 0 0 1486.3 59.7;" xml:space="preserve">
<style type="text/css">
	.st0{fill:#FFFFFF;}
</style>
<path class="st0" d="M0,58.2h15.6c16,0,27.4-12.3,27.4-28.3S32.1,1.7,15.6,1.7H0V58.2z M11.1,11.3H13c12.5,0,18.9,6.4,18.9,18.6
	c0,11.1-5.2,18.6-18.9,18.6h-1.9C11.1,48.5,11.1,11.3,11.1,11.3z M128.3,46.5l4.2,12h11.8L123.1,0.2h-8.5l-21.9,58h11.6l4.7-12h19.3
	L128.3,46.5L128.3,46.5z M125.2,37.3h-13.4l6.4-20.5h0.2L125.2,37.3z M196.7,58.2h10.8V19.8h0.2l29.7,39.6h8V1.7h-11.1v38h-0.2
	L204.4,0.2h-8v58L196.7,58.2L196.7,58.2z M313.2,1.7h-11.1v56.6h11.1V1.7z M399.2,11.3V1.7H370v56.6h29.2v-9.7H381V33.2h17.4v-9.4
	H381V11.3H399.2z M466.4,1.7h-11.1v56.6H482v-9.7h-15.6L466.4,1.7L466.4,1.7z M611,1.7h-11.6l17.9,57.8h8l10.6-37h0.2l11.3,37h8
	l19.1-57.8h-11.6l-10.8,38.7H652L640.2,0.9h-6.6l-11.1,39.4C622.5,40.3,611,1.7,611,1.7z M755.8,11.3V1.7h-29.2v56.6h29.2v-9.7
	h-18.2V33.2H755v-9.4h-17.4V11.3H755.8z M823,1.7h-11.1v56.6h26.6v-9.7H823V1.7z M902,1.7h-11.1v56.6h26.6v-9.7H902V1.7z M980.7,1.7
	h-11.1v56.6h11.1V1.7z M1037.6,58.2h11.1V19.8h0.2l29.7,39.6h8V1.7h-11.3v38l-29.7-39.4h-8V58.2z M1168.7,28.3v9h12
	c-0.2,6.8-5.9,12.7-13,12.7c-10.6,0-16-10.4-16-19.8s5.2-20.3,15.8-20.3c5.9,0,10.6,4,13,9l9.7-5.2c-4-8.5-12.5-13.4-22.2-13.4
	c-17,0-27.6,13.9-27.6,29.9c0,15.6,10.4,29.5,26.9,29.5c17.4,0,25.7-14.1,25.7-30.2v-1.4h-24.3C1168.7,28.1,1168.7,28.3,1168.7,28.3
	z M1265.6,11.3h11.3V1.7h-33.7v9.7h11.3v46.9h11.1L1265.6,11.3L1265.6,11.3z M1355.2,59.7c16.5,0,28.1-13.7,28.1-29.9
	c0-15.8-11.6-29.7-28.1-29.7s-28.1,13.9-28.1,29.7C1327.1,46.2,1338.7,59.7,1355.2,59.7z M1355.2,11.1c9.7,0,16.5,9.2,16.5,18.4
	c0,8.5-7.3,19.3-16.5,19.3c-9.4,0-16.5-10.8-16.5-19.3C1338.4,20.3,1345.5,11.1,1355.2,11.1z M1437.3,58.2h11.1V19.8h0.2l29.7,39.6
	h8V1.7h-11.1v38h-0.2l-29.7-39.4h-8L1437.3,58.2L1437.3,58.2z"/>
</svg>
